<svg id="visual" viewBox="0 0 960 540" width="960" height="540" xmlns="http://www.w3.org/2000/svg" xmlns:xlink="http://www.w3.org/1999/xlink" version="1.1"><rect x="0" y="0" width="960" height="540" fill="#001220"></rect><defs><linearGradient id="grad1_0" x1="43.8%" y1="0%" x2="100%" y2="100%"><stop offset="14.444444444444446%" stop-color="#001220" stop-opacity="1"></stop><stop offset="85.55555555555554%" stop-color="#001220" stop-opacity="1"></stop></linearGradient></defs><defs><linearGradient id="grad2_0" x1="0%" y1="0%" x2="56.3%" y2="100%"><stop offset="14.444444444444446%" stop-color="#001220" stop-opacity="1"></stop><stop offset="85.55555555555554%" stop-color="#001220" stop-opacity="1"></stop></linearGradient></defs><g transform="translate(960, 0)"><path d="M0 486C-64.4 480 -128.9 474 -186 449C-243.1 424 -292.8 379.9 -331.6 331.6C-370.4 283.4 -398.3 230.9 -422.2 174.9C-446.1 118.9 -466.1 59.5 -486 0L0 0Z" fill="#FBAE3C"></path></g><g transform="translate(0, 540)"><path d="M0 -486C50.3 -449 100.6 -411.9 163.4 -394.5C226.2 -377.1 301.5 -379.3 343.7 -343.7C385.8 -308 394.8 -234.6 413 -171.1C431.2 -107.5 458.6 -53.7 486 0L0 0Z" fill="#FBAE3C"></path></g></svg>